<svg version="1.1" id="Layer_1" xmlns="http://www.w3.org/2000/svg" xmlns:xlink="http://www.w3.org/1999/xlink" x="0px" y="0px"
	 width="100%" viewBox="0 0 500 500" enable-background="new 0 0 500 500" xml:space="preserve">

<path fill="#143942" opacity="1.000000" stroke="none" 
	d="
M215.162613,54.147667 
	C223.867981,52.634434 232.166321,51.205715 241.441391,49.608837 
	C241.441391,63.911106 241.441391,77.313332 241.441391,91.299614 
	C203.340469,95.646996 174.082367,114.721146 154.513062,149.147461 
	C142.154526,143.746109 129.764236,138.330872 116.672440,132.609039 
	C138.138412,91.993927 170.680344,65.964653 215.162613,54.147667 
z"/>
<path fill="#143A43" opacity="1.000000" stroke="none" 
	d="
M146.326889,228.490112 
	C149.912338,240.960876 155.349380,252.088760 162.950119,262.832916 
	C152.441299,271.335541 141.908218,279.857788 131.378265,288.377502 
	C102.633682,254.349854 91.055824,194.113342 111.538635,145.079514 
	C123.906815,150.483032 136.270569,155.884628 149.054993,161.470001 
	C141.274765,183.455597 140.194168,205.654739 146.326889,228.490112 
z"/>
<path fill="#143A43" opacity="1.000000" stroke="none" 
	d="
M334.089172,268.053162 
	C348.366547,250.555283 356.221191,230.805710 358.433716,208.543335 
	C371.989166,208.543335 385.534027,208.543335 399.077911,208.543335 
	C399.014374,247.791611 374.772400,300.674927 324.682831,329.031799 
	C318.619934,316.942810 312.569122,304.877930 306.886932,293.548035 
	C316.076752,284.972076 324.983368,276.660370 334.089172,268.053162 
z"/>
<path fill="#153A43" opacity="1.000000" stroke="none" 
	d="
M244.841248,319.026276 
	C244.841248,329.124634 244.841248,338.728210 244.841248,348.820435 
	C202.541306,346.334473 167.846619,330.007843 139.328140,299.280762 
	C150.177719,290.520508 160.749023,281.984985 171.277191,273.484253 
	C201.944824,299.027924 204.052719,300.015686 244.841263,307.864777 
	C244.841263,311.324371 244.841263,314.927917 244.841248,319.026276 
z"/>
<path fill="#29BEF3" opacity="1.000000" stroke="none" 
	d="
M253.741882,246.445511 
	C252.928101,245.897842 251.998627,245.466003 251.317230,244.785736 
	C228.126831,221.633728 204.850601,198.566025 181.836578,175.239700 
	C170.596405,163.846985 174.634277,145.737076 189.350632,140.815399 
	C197.612595,138.052338 205.075485,139.987762 211.309998,146.232025 
	C225.060791,160.004318 238.824020,173.764175 252.790741,188.252747 
	C253.246826,208.132751 253.494354,227.289139 253.741882,246.445511 
z"/>
<path fill="#153A43" opacity="1.000000" stroke="none" 
	d="
M255.294067,74.929390 
	C255.285965,66.483162 255.285965,58.527203 255.285965,50.046982 
	C273.901184,50.456806 291.907501,54.544697 309.716278,61.995651 
	C303.812866,74.562881 298.133301,86.653648 292.597931,98.437355 
	C280.510132,95.718506 268.631744,93.046761 256.080933,90.223770 
	C255.852783,85.886772 255.577469,80.653214 255.294067,74.929390 
z"/>
<path fill="#153A43" opacity="1.000000" stroke="none" 
	d="
M295.854156,341.890320 
	C283.334717,344.562836 271.198944,347.125458 258.411377,349.825684 
	C258.411377,334.901276 258.411377,321.256042 258.411377,308.369812 
	C270.652832,305.340851 282.324341,302.452881 294.678223,299.396118 
	C300.391571,310.810974 306.439026,322.893341 312.769958,335.542053 
	C306.978271,337.727509 301.608032,339.753967 295.854156,341.890320 
z"/>
<path fill="#153A43" opacity="1.000000" stroke="none" 
	d="
M382.992767,195.005524 
	C374.719269,195.005249 366.944275,195.005249 359.888214,195.005249 
	C357.119232,182.362335 354.580017,170.768631 351.904724,158.553635 
	C363.348297,152.965454 375.521606,147.020920 388.103821,140.876724 
	C395.604340,158.284943 399.315887,176.131332 400.000946,195.005798 
	C394.346069,195.005798 388.918671,195.005798 382.992767,195.005524 
z"/>
<path fill="#6BD0F5" opacity="1.000000" stroke="none" 
	d="
M454.743683,411.262756 
	C453.633728,409.836487 452.742859,408.695587 450.960907,406.413544 
	C450.960907,413.076111 450.960876,418.454834 450.960876,423.833557 
	C450.960846,429.333130 450.950378,434.832703 450.965088,440.332245 
	C450.972931,443.275085 451.123108,446.216919 446.819275,446.160309 
	C442.747253,446.106750 443.036682,443.269623 443.037750,440.553192 
	C443.038483,438.720001 443.039032,436.886841 443.039001,435.053650 
	C443.038910,423.721222 442.888733,412.385132 443.163086,401.059357 
	C443.218964,398.754059 444.245972,395.418427 445.925262,394.433929 
	C449.063477,392.594086 451.893921,394.772156 453.879272,397.603699 
	C459.518494,405.646393 465.150635,413.694061 470.807037,421.724640 
	C473.148651,425.049133 475.544952,428.335083 478.937439,431.294739 
	C478.937439,421.720398 478.936737,412.146027 478.938171,402.571686 
	C478.938385,401.071838 478.477295,399.341583 479.070343,398.129150 
	C479.852234,396.530579 481.465118,395.338470 482.720764,393.971619 
	C484.099518,395.270294 486.503876,396.452026 486.667816,397.889343 
	C487.193451,402.497131 486.900848,407.199524 486.904388,411.865387 
	C486.911499,421.197968 487.087341,430.536865 486.764557,439.858307 
	C486.692749,441.933075 485.069214,445.448853 483.766388,445.641754 
	C481.726593,445.943695 478.531281,444.591400 477.252838,442.875977 
	C469.596191,432.602264 462.347931,422.024200 454.743683,411.262756 
z"/>
<path fill="#6BD0F6" opacity="1.000000" stroke="none" 
	d="
M161.174774,425.085266 
	C158.394058,440.430817 145.175430,449.537689 130.247040,446.764008 
	C116.155563,444.145874 106.835022,430.242096 109.333267,415.859375 
	C112.302094,398.767334 126.057220,391.310394 139.378357,393.440155 
	C155.049896,395.945679 164.123322,409.251648 161.174774,425.085266 
M117.832321,418.644989 
	C117.845222,419.975739 117.801483,421.309875 117.879868,422.636749 
	C118.595520,434.751404 129.565262,442.400879 141.110672,438.852844 
	C148.985062,436.432922 153.392792,428.979950 153.084198,418.606842 
	C152.778458,408.329529 145.786880,401.005463 136.074341,400.788116 
	C125.611748,400.553955 118.762932,406.933533 117.832321,418.644989 
z"/>
<path fill="#6BD0F6" opacity="1.000000" stroke="none" 
	d="
M204.200745,421.261353 
	C200.921158,422.846741 197.920975,424.185303 194.448547,425.734558 
	C198.199799,430.229706 202.212830,434.758484 205.849533,439.571625 
	C206.904877,440.968353 206.882553,443.179352 207.354248,445.017090 
	C204.926483,444.891876 201.521225,445.743927 200.244949,444.467438 
	C195.447464,439.669128 191.191589,434.294037 187.043427,428.896301 
	C184.889740,426.093811 182.622910,425.187988 178.904388,426.630859 
	C178.904388,431.315033 178.884430,436.105835 178.911697,440.896362 
	C178.928757,443.895630 178.243484,446.216705 174.550903,446.147491 
	C170.949661,446.079987 170.806046,443.645538 170.810623,440.967316 
	C170.833969,427.323608 170.893768,413.679169 170.777863,400.036377 
	C170.741531,395.759399 172.569778,393.902039 176.765778,394.085663 
	C183.227188,394.368439 189.821594,393.860596 196.127350,394.987579 
	C209.532150,397.383301 213.603882,410.721008 204.200745,421.261353 
M192.674820,401.307678 
	C188.256653,401.307678 183.838486,401.307678 179.217163,401.307678 
	C179.217163,407.272949 179.217163,412.947021 179.217163,419.074951 
	C183.360077,419.074951 187.141815,419.165833 190.917511,419.053802 
	C196.691086,418.882507 200.061981,416.121002 200.763519,411.186951 
	C201.419403,406.574005 199.091446,403.503448 192.674820,401.307678 
z"/>
<path fill="#6ED1F6" opacity="1.000000" stroke="none" 
	d="
M323.989441,445.775909 
	C318.501801,446.872894 317.124847,445.917145 317.105103,441.033173 
	C317.048615,427.059174 317.118927,413.084656 317.059265,399.110687 
	C317.046234,396.052887 317.615112,393.819702 321.355469,393.927643 
	C324.920258,394.030548 325.800446,396.213837 325.792114,399.241058 
	C325.779816,403.732727 325.588013,408.240540 325.933838,412.705719 
	C326.028961,413.934082 327.730194,416.003784 328.754059,416.040833 
	C336.537445,416.322327 344.335632,416.194916 352.876892,416.194916 
	C352.876892,410.176056 352.916809,404.579376 352.859833,398.983673 
	C352.831848,396.239380 353.119843,393.986359 356.702545,393.919708 
	C360.423401,393.850494 361.055115,396.000275 361.042419,399.076965 
	C360.984650,413.050995 360.968597,427.025635 361.056610,440.999329 
	C361.076050,444.082672 360.375549,446.466553 356.882111,446.441284 
	C353.340759,446.415680 352.766174,443.924225 352.838379,440.899139 
	C352.968384,435.451599 352.875122,429.998718 352.875122,424.208038 
	C343.786865,424.208038 335.228149,424.208038 325.788361,424.208038 
	C325.788361,429.139099 325.935974,434.056763 325.721832,438.958649 
	C325.624786,441.181152 324.810120,443.372314 323.989441,445.775909 
z"/>
<path fill="#6ACFF5" opacity="1.000000" stroke="none" 
	d="
M226.141235,414.668152 
	C231.458344,415.431641 236.684738,415.752594 241.913528,416.027771 
	C243.408432,416.106384 245.092911,415.627563 246.360107,416.172516 
	C247.761826,416.775391 248.784500,418.259583 249.972244,419.359955 
	C248.731812,420.571899 247.545883,422.758148 246.241699,422.831116 
	C239.782761,423.192535 233.292618,422.995789 226.411667,422.995789 
	C226.411667,428.193665 226.411667,433.097260 226.411667,438.650635 
	C227.999985,438.724213 229.748993,438.867310 231.498611,438.875366 
	C238.492783,438.907501 245.496262,438.716766 252.473160,439.067871 
	C253.748795,439.132111 255.532303,441.184845 255.893372,442.618805 
	C256.096283,443.424591 253.891800,445.804443 252.729553,445.834473 
	C242.577972,446.096588 232.410049,446.169098 222.265823,445.791534 
	C220.762711,445.735596 218.131882,443.062347 218.098358,441.553833 
	C217.780228,427.239441 217.763550,412.911285 218.127014,398.598969 
	C218.166016,397.063995 221.116989,394.386749 222.809280,394.311523 
	C232.282928,393.890350 241.791992,393.920746 251.270294,394.283936 
	C252.874023,394.345367 254.386978,396.775238 255.941864,398.110840 
	C254.283478,399.353180 252.690704,401.547485 250.954971,401.667084 
	C244.656570,402.101105 238.310272,401.839722 231.982040,401.840576 
	C230.191269,401.840820 228.400482,401.840637 226.051437,401.840637 
	C226.051437,406.313873 226.051437,410.261078 226.141235,414.668152 
z"/>
<path fill="#6BD0F6" opacity="1.000000" stroke="none" 
	d="
M398.866425,400.153290 
	C404.188660,413.839142 409.452393,427.133575 414.494690,440.511505 
	C415.046661,441.975861 414.325104,443.920197 414.194244,445.641907 
	C411.821869,445.093811 408.635071,445.295319 407.273895,443.816498 
	C405.380219,441.759125 404.668213,438.500244 403.790253,435.650940 
	C402.721313,432.182037 400.930969,430.145782 397.009094,430.890045 
	C396.365967,431.012115 395.666962,430.992371 395.015381,430.894409 
	C385.519745,429.466858 378.164948,431.141693 376.530670,442.519409 
	C376.046631,445.889282 372.991394,447.012085 369.915405,445.822113 
	C366.203217,444.386047 368.390930,441.702637 369.217468,439.548676 
	C374.279694,426.356445 379.441986,413.202637 384.495544,400.007141 
	C385.701630,396.857849 386.443390,393.943756 390.984192,393.750580 
	C395.758820,393.547333 397.502655,396.054749 398.866425,400.153290 
M397.003113,424.024872 
	C397.577423,423.159027 398.828369,422.057343 398.621521,421.463776 
	C396.513275,415.414642 394.167755,409.448242 391.474731,402.371063 
	C388.566223,410.076630 386.080139,416.663025 383.294647,424.042694 
	C388.213531,424.042694 392.160614,424.042694 397.003113,424.024872 
z"/>
<path fill="#28B7EA" opacity="1.000000" stroke="none" 
	d="
M302.860016,149.511490 
	C312.679779,141.742218 322.499542,133.972946 332.985565,126.284317 
	C334.101624,129.854874 334.403625,133.372513 335.051208,136.825333 
	C335.512512,139.284927 336.438721,141.657349 337.157471,144.068665 
	C326.650543,157.303802 316.143616,170.538956 305.178101,183.562134 
	C304.146790,179.455688 303.233948,175.575058 303.074493,171.663696 
	C302.773834,164.288971 302.907104,156.896561 302.860016,149.511490 
z"/>
<path fill="#6BD0F6" opacity="1.000000" stroke="none" 
	d="
M17.418201,418.623779 
	C9.866097,410.192474 11.986503,399.197510 21.990328,395.087738 
	C30.508430,391.588348 39.005318,392.034546 46.508602,397.923370 
	C50.288338,400.889832 49.947144,403.471924 46.395607,406.324036 
	C42.460014,404.286133 38.883560,401.745880 34.905991,400.609192 
	C32.111961,399.810730 28.352234,400.112640 25.803104,401.430603 
	C23.619480,402.559601 21.410446,405.791443 21.330114,408.164978 
	C21.264219,410.111908 23.928106,412.977478 26.066454,413.989319 
	C29.762854,415.738434 34.039116,416.214386 37.984531,417.494385 
	C47.555897,420.599640 50.790981,425.039093 50.082199,433.716705 
	C49.519192,440.609619 44.460632,445.445251 35.849220,446.734680 
	C29.496944,447.685852 23.136892,447.222870 17.418596,443.991913 
	C15.339375,442.817108 13.297891,440.942719 12.212080,438.876312 
	C11.544449,437.605743 12.718864,435.367310 13.066175,433.563446 
	C14.456324,433.946808 16.219421,433.918457 17.173738,434.782959 
	C21.956385,439.115387 27.515453,440.733917 33.773918,439.941986 
	C37.783249,439.434692 41.359974,437.875854 41.922642,433.245300 
	C42.492622,428.554565 39.416603,426.386902 35.482445,425.028473 
	C29.556574,422.982269 23.641077,420.906036 17.418201,418.623779 
z"/>
<path fill="#6BD0F6" opacity="1.000000" stroke="none" 
	d="
M307.984772,406.017822 
	C306.697052,407.194366 305.544830,408.048035 304.392639,408.901733 
	C304.490112,408.382294 304.587616,407.862854 304.685089,407.343414 
	C300.219604,405.203857 295.937378,401.893311 291.251801,401.160004 
	C280.319458,399.449158 272.583740,406.005493 271.357910,417.767059 
	C269.997528,430.820129 279.170471,442.147583 293.563263,438.836121 
	C296.828156,438.084930 299.547699,435.082184 302.607391,433.266022 
	C303.959290,432.463593 305.533600,432.035950 307.006958,431.438141 
	C307.646851,433.151550 308.931580,434.940033 308.743378,436.557068 
	C308.559021,438.140839 307.130402,439.846802 305.806854,440.987274 
	C297.670837,447.998230 288.291656,448.722046 278.665771,445.157104 
	C269.035248,441.590515 263.742432,434.082306 263.009979,423.930328 
	C261.619354,404.656372 273.010895,391.830750 290.742889,393.363190 
	C295.983368,393.816101 301.128571,397.072113 305.940033,399.727417 
	C307.338623,400.499207 307.429779,403.640076 307.984772,406.017822 
z"/>
<path fill="#6BD0F6" opacity="1.000000" stroke="none" 
	d="
M91.537369,445.855286 
	C76.484711,449.567841 64.140350,444.065277 58.794720,431.521423 
	C53.523979,419.153229 57.802486,403.535248 68.728920,397.038574 
	C78.037788,391.503601 87.712128,391.582855 97.138428,397.074249 
	C98.676331,397.970184 99.984070,399.382538 101.152077,400.764221 
	C102.999924,402.950134 103.407333,405.681152 100.822037,407.201355 
	C99.704102,407.858765 96.833267,406.888336 95.585442,405.750641 
	C87.873589,398.719116 76.489143,399.040436 69.743423,406.752380 
	C64.568954,412.668060 63.824039,423.982330 68.136955,431.152649 
	C72.075279,437.700165 79.513031,441.018036 87.518463,438.844879 
	C90.802536,437.953400 93.525520,435.104279 96.615898,433.342407 
	C98.095184,432.499023 99.835800,432.114014 101.458054,431.521393 
	C101.867012,433.473053 103.283226,436.414978 102.508537,437.202972 
	C99.348427,440.417328 95.518112,442.972809 91.537369,445.855286 
z"/>
<path fill="#27AFE0" opacity="1.000000" stroke="none" 
	d="
M302.528320,149.644501 
	C302.907104,156.896561 302.773834,164.288971 303.074493,171.663696 
	C303.233948,175.575058 304.146790,179.455688 304.876862,183.713470 
	C299.259491,191.350937 293.484772,198.625137 287.243286,205.675583 
	C286.517670,203.512024 286.049194,201.573746 286.035065,199.632141 
	C285.960327,189.371384 286.057312,179.109131 285.942627,168.849106 
	C285.923920,167.172943 285.146271,165.505280 284.719421,163.833679 
	C290.545166,159.148285 296.370880,154.462891 302.528320,149.644501 
z"/>
<path fill="#25A8D8" opacity="1.000000" stroke="none" 
	d="
M284.401978,163.934479 
	C285.146271,165.505280 285.923920,167.172943 285.942627,168.849106 
	C286.057312,179.109131 285.960327,189.371384 286.035065,199.632141 
	C286.049194,201.573746 286.517670,203.512024 286.952820,205.853943 
	C282.597137,212.021194 278.065125,217.786346 273.260040,223.260925 
	C272.991333,208.900177 273.087524,194.828766 272.896057,180.761261 
	C272.868896,178.766388 271.442535,176.790573 270.663788,174.805954 
	C275.137360,171.215729 279.610931,167.625504 284.401978,163.934479 
z"/>
<path fill="#249FCA" opacity="1.000000" stroke="none" 
	d="
M253.982193,246.647400 
	C253.494354,227.289139 253.246826,208.132751 252.999634,188.510925 
	C256.453888,185.437958 259.907806,182.830414 263.724945,180.506317 
	C264.280396,181.423599 264.647675,182.059830 264.639130,182.690964 
	C264.451233,196.600510 264.096191,210.509659 264.112701,224.418457 
	C264.115784,227.003891 265.581909,229.587570 266.372833,232.172058 
	C262.322723,237.064468 258.272614,241.956879 253.982193,246.647400 
z"/>
<path fill="#2DBEF1" opacity="1.000000" stroke="none" 
	d="
M337.449768,143.913605 
	C336.438721,141.657349 335.512512,139.284927 335.051208,136.825333 
	C334.403625,133.372513 334.101624,129.854874 333.301971,126.169281 
	C348.465607,113.734718 363.977814,101.494209 379.507416,89.275772 
	C379.699249,89.124832 380.113831,89.256966 381.726898,89.256966 
	C366.716583,107.856262 352.229309,125.807404 337.449768,143.913605 
z"/>
<path fill="#24A3D0" opacity="1.000000" stroke="none" 
	d="
M266.635742,231.984406 
	C265.581909,229.587570 264.115784,227.003891 264.112701,224.418457 
	C264.096191,210.509659 264.451233,196.600510 264.639130,182.690964 
	C264.647675,182.059830 264.280396,181.423599 264.048523,180.413330 
	C266.009949,178.328354 268.011047,176.619797 270.337952,174.858582 
	C271.442535,176.790573 272.868896,178.766388 272.896057,180.761261 
	C273.087524,194.828766 272.991333,208.900177 272.979218,223.430984 
	C270.947174,226.526672 268.922913,229.161728 266.635742,231.984406 
z"/>
<path fill="#69CFF5" opacity="1.000000" stroke="none" 
	d="
M423.044067,400.304718 
	C423.072693,396.909576 423.049316,393.577209 427.202728,394.146454 
	C428.667694,394.347229 430.964508,396.591248 430.989838,397.937958 
	C431.265411,412.583435 431.148773,427.235992 431.180481,441.886566 
	C431.186676,444.737976 430.074402,446.208801 427.040192,446.169983 
	C423.962555,446.130615 423.023041,444.505737 423.029968,441.724640 
	C423.063995,428.072968 423.044586,414.421143 423.044067,400.304718 
z"/>
<path fill="#FDFEFF" opacity="1.000000" stroke="none" 
	d="
M117.852203,418.194153 
	C118.762932,406.933533 125.611748,400.553955 136.074341,400.788116 
	C145.786880,401.005463 152.778458,408.329529 153.084198,418.606842 
	C153.392792,428.979950 148.985062,436.432922 141.110672,438.852844 
	C129.565262,442.400879 118.595520,434.751404 117.879868,422.636749 
	C117.801483,421.309875 117.845222,419.975739 117.852203,418.194153 
z"/>
<path fill="#FDFEFF" opacity="1.000000" stroke="none" 
	d="
M193.074799,401.440460 
	C199.091446,403.503448 201.419403,406.574005 200.763519,411.186951 
	C200.061981,416.121002 196.691086,418.882507 190.917511,419.053802 
	C187.141815,419.165833 183.360077,419.074951 179.217163,419.074951 
	C179.217163,412.947021 179.217163,407.272949 179.217163,401.307678 
	C183.838486,401.307678 188.256653,401.307678 193.074799,401.440460 
z"/>
<path fill="#FAFDFF" opacity="1.000000" stroke="none" 
	d="
M396.555420,424.033783 
	C392.160614,424.042694 388.213531,424.042694 383.294647,424.042694 
	C386.080139,416.663025 388.566223,410.076630 391.474731,402.371063 
	C394.167755,409.448242 396.513275,415.414642 398.621521,421.463776 
	C398.828369,422.057343 397.577423,423.159027 396.555420,424.033783 
z"/>
</svg>